# xmcd CD database file
#
# Track frame offsets:
#	150
#	12821
#	25738
#	38145
#	52113
#	65949
#	78492
#	92701
#	107571
#	120392
#	134429
#	145005
#	160099
#	174843
#	190979
#	206184
#
# Disc length: 2937 seconds
#
# Revision: 2
# Processed by: cddbd v1.5.2PL0 Copyright (c) Steve Scherf et al.
# Submitted via: CDex 1.51
#
DISCID=d80b7710
DTITLE=Various Artist - Goody Goody (2 of 2)
DYEAR=2003
DGENRE=Jazz
TTITLE0=1 - Swingin' The Blues - Count Basie
TTITLE1=2 - When You're Smiling - Billie Holiday
TTITLE2=3 - Louise - Benny Goodman
TTITLE3=4 - Margie - Jimmie Lunceford
TTITLE4=5 - One O'clock Jump - Count Basie
TTITLE5=6 - Honeysuckle Rose - Coleman Hawkins
TTITLE6=7 - I Got Rhythm - Louis Armstrong
TTITLE7=8 - Marie - Tommy Dorsey
TTITLE8=9 - It's Only A Papermoon - Benny Goodman
TTITLE9=10 - Boo Hoo - Guy Lombardo
TTITLE10=11 - Baby, It's Cold Outside - Buddy Clark and D. Shore
TTITLE11=12 - G. I. Jive - Johnny Mercer
TTITLE12=13 - Jingle, Jangle, Jingle - Kay Kyser
TTITLE13=14 - Stardust - Artie Shaw
TTITLE14=15 - Moonlight Serenade - Glenn Miller
TTITLE15=16 - Boogie Woogie - Tommy Dorsey
EXTD=YEAR: 2003
EXTT0=
EXTT1=
EXTT2=
EXTT3=
EXTT4=
EXTT5=
EXTT6=
EXTT7=
EXTT8=
EXTT9=
EXTT10=
EXTT11=
EXTT12=
EXTT13=
EXTT14=
EXTT15=
PLAYORDER=
